<?xml version="1.0" encoding="utf-8"?>
<!-- Generator: Adobe Illustrator 21.0.2, SVG Export Plug-In . SVG Version: 6.00 Build 0)  -->
<svg version="1.1" id="ic_close" xmlns="http://www.w3.org/2000/svg" xmlns:xlink="http://www.w3.org/1999/xlink" x="0px" y="0px"
	 viewBox="0 0 34.3 34" style="enable-background:new 0 0 34.3 34;" xml:space="preserve">
<style type="text/css">
	.st0{fill:#BDDCFF;}
</style>
<path class="st0" d="M32.3,34c-0.5,0-1-0.2-1.4-0.6L0.6,3.4c-0.8-0.8-0.8-2,0-2.8c0.8-0.8,2-0.8,2.8,0l30.4,30c0.8,0.8,0.8,2,0,2.8
	C33.4,33.8,32.9,34,32.3,34z"/>
<path class="st0" d="M2.4,33.5c-0.5,0-1-0.2-1.4-0.6c-0.8-0.8-0.8-2.1,0-2.8L30.7,0.6c0.8-0.8,2.1-0.8,2.8,0c0.8,0.8,0.8,2.1,0,2.8
	L3.8,32.9C3.4,33.3,2.9,33.5,2.4,33.5z"/>
</svg>
