<svg xmlns="http://www.w3.org/2000/svg" width="100" height="99.843" viewBox="0 0 100 99.843">
  <metadata><?xpacket begin="﻿" id="W5M0MpCehiHzreSzNTczkc9d"?>
<x:xmpmeta xmlns:x="adobe:ns:meta/" x:xmptk="Adobe XMP Core 5.6-c138 79.159824, 2016/09/14-01:09:01        ">
   <rdf:RDF xmlns:rdf="http://www.w3.org/1999/02/22-rdf-syntax-ns#">
      <rdf:Description rdf:about=""/>
   </rdf:RDF>
</x:xmpmeta>
                                                                                                    
                                                                                                    
                                                                                                    
                                                                                                    
                                                                                                    
                                                                                                    
                                                                                                    
                                                                                                    
                                                                                                    
                                                                                                    
                                                                                                    
                                                                                                    
                                                                                                    
                                                                                                    
                                                                                                    
                                                                                                    
                                                                                                    
                                                                                                    
                                                                                                    
                                                                                                    
                           
<?xpacket end="w"?></metadata>
<defs>
    <style>
      .cls-1 {
        fill: #fff;
        fill-rule: evenodd;
      }
    </style>
  </defs>
  <path id="ic_creativemarket" class="cls-1" d="M436.592,468.277c0-3.821-1.645-26.537-1.645-26.537a10.3,10.3,0,0,0-10.664-10.669s-22.718-1.645-26.544-1.645c-5.49,0-9.153-.159-16.032,6.727-3.346,3.339-40.427,40.423-41.993,41.983s-6.837,7.714,2.163,16.714l14.241,14.24,0.8,0.805,14.242,14.246c9.007,9.006,15.161,3.717,16.721,2.157l41.986-41.983C436.757,477.429,436.592,473.773,436.592,468.277Zm-39.631,12.251,12.7,6.034-4.673,8.362-11.751-7.675a1.627,1.627,0,0,0-.892-0.272,1.578,1.578,0,0,0-1.579,1.7l0.973,13.9h-9.451c0.037-.118.773-13.906,0.773-13.906a1.582,1.582,0,0,0-2.469-1.423L369.173,495l-5.1-8.112,12.817-6.363a1.582,1.582,0,0,0,0-2.859l-12.712-6.034,4.673-8.36,11.746,7.68a1.583,1.583,0,0,0,2.469-1.424l-0.965-13.9h9.413l-0.743,13.9a1.584,1.584,0,0,0,2.471,1.424l11.424-7.761,5.1,8.114-12.805,6.361A1.582,1.582,0,0,0,396.961,480.528Zm21.733-26.656a6.011,6.011,0,1,1,6-6.014A6.011,6.011,0,0,1,418.694,453.872Z" transform="translate(-336.75 -429.438)"/>
</svg>
