<?xml version="1.0" encoding="utf-8"?>
<!-- Generator: Adobe Illustrator 20.0.0, SVG Export Plug-In . SVG Version: 6.00 Build 0)  -->
<svg version="1.1" id="Layer_21" xmlns="http://www.w3.org/2000/svg" xmlns:xlink="http://www.w3.org/1999/xlink" x="0px" y="0px"
	 viewBox="0 0 18 18" style="enable-background:new 0 0 18 18;" xml:space="preserve">
<title></title>
<path d="M9,0C4,0,0,4,0,9s4,9,9,9s9-4,9-9S14,0,9,0z M16.5,8.9c-1.1-0.3-2.2-0.4-3.4-0.4c-0.6,0-1.1,0-1.7,0.1c0,0-0.1,0-0.1,0
	c-0.2-0.5-0.4-0.9-0.6-1.3c1.6-0.7,3-1.7,4.1-3C15.9,5.6,16.5,7.2,16.5,8.9z M13.7,3.2c-1,1.2-2.3,2.1-3.7,2.7
	C9.2,4.4,8.3,3,7.3,1.7C9.5,1.2,11.9,1.7,13.7,3.2z M5.7,2.3c1.1,1.3,2,2.7,2.8,4.2C6.4,7,4.2,7.3,2,7.3c-0.1,0-0.2,0-0.3,0
	C2.2,5.1,3.7,3.2,5.7,2.3z M1.5,9c0-0.1,0-0.2,0-0.3c0.2,0,0.3,0,0.5,0c2.5,0,4.9-0.3,7.3-1c0.2,0.4,0.4,0.8,0.5,1.2
	c-2.7,0.9-4.9,2.6-6.5,5C2.2,12.6,1.5,10.8,1.5,9z M4.5,15c1.3-2.2,3.4-3.8,5.9-4.6c0.7,1.8,1.1,3.7,1.4,5.6
	C9.3,16.9,6.5,16.6,4.5,15z M13.2,15.2c-0.3-1.8-0.7-3.5-1.3-5.2c0.4-0.1,0.9-0.1,1.3-0.1c1.1,0,2.1,0.2,3.2,0.4
	C16,12.4,14.8,14.1,13.2,15.2L13.2,15.2z"/>
</svg>
