<?xml version="1.0" encoding="utf-8"?>
<!-- Generator: Adobe Illustrator 20.0.0, SVG Export Plug-In . SVG Version: 6.00 Build 0)  -->
<svg version="1.1" id="Layer_21" xmlns="http://www.w3.org/2000/svg" xmlns:xlink="http://www.w3.org/1999/xlink" x="0px" y="0px"
	 viewBox="0 0 17 18" style="enable-background:new 0 0 17 18;" xml:space="preserve">
<title></title>
<path d="M13.5,11c-1,0-2,0.5-2.7,1.2l-4-2.4c0.2-0.6,0.2-1.2,0-1.7l4-2.4c1.3,1.5,3.5,1.6,4.9,0.4s1.6-3.5,0.4-4.9s-3.5-1.6-4.9-0.4
	C10.5,1.5,10,2.5,10,3.5c0,0.1,0,0.3,0,0.4L5.9,6.4C4.4,5.1,2.2,5.2,0.9,6.6s-1.2,3.6,0.2,4.9c1.3,1.2,3.4,1.2,4.7,0l4.2,2.5
	c0,0.1,0,0.3,0,0.4c0,1.9,1.6,3.5,3.5,3.5s3.5-1.6,3.5-3.5S15.5,11,13.5,11z"/>
</svg>
