<?xml version="1.0" encoding="utf-8"?>
<!-- Generator: Adobe Illustrator 21.0.0, SVG Export Plug-In . SVG Version: 6.00 Build 0)  -->
<svg version="1.1" id="Layer_1" xmlns="http://www.w3.org/2000/svg" xmlns:xlink="http://www.w3.org/1999/xlink" x="0px" y="0px"
	 viewBox="0 0 318.7 259.1" style="enable-background:new 0 0 318.7 259.1;" xml:space="preserve">
<path id="XMLID_22_" d="M100.2,259.1c120.3,0,186.1-99.7,186.1-186.1c0-2.8,0-5.6-0.2-8.5c12.8-9.3,23.8-20.7,32.6-33.9
	c-11.9,5.3-24.6,8.8-37.6,10.3c13.7-8.2,23.9-21,28.8-36.2c-12.8,7.6-26.9,13-41.5,15.9C243.6-5.7,202.2-7,175.9,17.8
	c-17,16-24.2,39.8-18.9,62.5C104.4,77.7,55.4,52.8,22.2,12C4.8,41.9,13.7,80.1,42.4,99.3C32,99,21.8,96.2,12.7,91.1
	c0,0.3,0,0.5,0,0.8c0,31.1,22,57.9,52.5,64.1c-9.6,2.6-19.7,3-29.5,1.1c8.6,26.6,33.1,44.9,61.1,45.4
	c-23.2,18.2-51.8,28.1-81.2,28.1c-5.2,0-10.4-0.3-15.6-0.9C29.8,248.9,64.6,259.1,100.2,259.1"/>
</svg>
