<?xml version="1.0" encoding="utf-8"?>
<!-- Generator: Adobe Illustrator 21.0.0, SVG Export Plug-In . SVG Version: 6.00 Build 0)  -->
<svg version="1.1" id="Layer_21" xmlns="http://www.w3.org/2000/svg" xmlns:xlink="http://www.w3.org/1999/xlink" x="0px" y="0px"
	 viewBox="0 0 20.3 11.5" style="enable-background:new 0 0 20.3 11.5;" xml:space="preserve">
<title></title>
<path d="M19.5,0.5h-3.3c-0.3,0-0.5,0.2-0.7,0.4c0,0-1.3,2.4-1.7,3.2c-1.1,2.2-1.9,1.5-1.9,0.5V1.1c0-0.6-0.5-1.1-1.1-1.1H8.4
	C7.7,0,7,0.3,6.6,0.8c0,0,1.3-0.2,1.3,1.5c0,0.4,0,1.6,0,2.6c0,0.4-0.3,0.7-0.7,0.7C7,5.7,6.8,5.6,6.6,5.5C5.6,4,4.8,2.5,4.1,0.9
	C4,0.7,3.8,0.5,3.5,0.5c-0.7,0-2.1,0-3,0C0.2,0.5,0,0.7,0,1c0,0.1,0,0.1,0,0.2c0.9,2.5,4.8,10.3,9.3,10.3h1.9c0.4,0,0.7-0.3,0.7-0.7
	V9.6c0-0.4,0.3-0.7,0.7-0.7c0.2,0,0.4,0.1,0.5,0.2l2.2,2.1c0.2,0.2,0.5,0.3,0.7,0.3h3c1.4,0,1.4-1,0.6-1.8c-0.5-0.5-2.5-2.6-2.5-2.6
	c-0.3-0.4-0.4-0.9-0.1-1.3C17.8,5,18.8,3.6,19.3,3C19.9,2.2,21,0.5,19.5,0.5z"/>
</svg>
