<?xml version="1.0" encoding="UTF-8"?><!DOCTYPE svg PUBLIC "-//W3C//DTD SVG 1.1//EN" "http://www.w3.org/Graphics/SVG/1.1/DTD/svg11.dtd"><svg xmlns="http://www.w3.org/2000/svg"><defs>
        <style>
            .cls-1{fill:#3a4776;fill-rule:evenodd}
        </style>
    </defs><symbol id="icon-left" viewBox="0 0 17 29">
    <path d="M16.707 1.707L15.293.293.559 15.027l14.76 13.706 1.361-1.466L3.44 14.973z" fill-rule="evenodd"/>
</symbol><symbol id="icon-logo" viewBox="0 0 73.875 99.969">
    
    <path id="logo" class="cls-1" d="M548.84 215.379a36.581 36.581 0 0 1-33.935 36.232 2.825 2.825 0 0 1-3-3.11v-3.3a2.707 2.707 0 0 1 2.378-2.629 27.239 27.239 0 0 0 3.191-53.932c-17.748-3.367-33.283 9.908-33.283 26.742V267.8a1.865 1.865 0 0 0 2.28 1.828 9.1 9.1 0 0 0 6.969-8.786v-45.463a17.966 17.966 0 0 1 5.406-12.858 18.822 18.822 0 0 1 26.119 0 13.84 13.84 0 0 1 0 19.3 11.281 11.281 0 0 1-4.983 2.886 2.815 2.815 0 0 1-.684.128 1.716 1.716 0 0 1-1.693-1.7 1.648 1.648 0 0 1 .293-.93 9.472 9.472 0 0 0 3.224-6.926 8.856 8.856 0 0 0-9.217-8.978 9.166 9.166 0 0 0-9.248 9.075v45.434a18.33 18.33 0 0 1-18.466 18.18h-4.559a4.615 4.615 0 0 1-4.657-4.553v-58.032c0-17.988 12.831-34.052 30.841-36.906 23.093-3.655 43.024 13.852 43.024 35.88z" transform="translate(-474.969 -179.031)"/>
</symbol><symbol id="icon-right" viewBox="0 0 17 29">
    <path d="M.32 27.267l1.36 1.466 14.76-13.706L1.708.293.293 1.707l13.266 13.266z" fill-rule="evenodd"/>
</symbol></svg>