<?xml version="1.0" encoding="UTF-8"?><!DOCTYPE svg PUBLIC "-//W3C//DTD SVG 1.1//EN" "http://www.w3.org/Graphics/SVG/1.1/DTD/svg11.dtd"><svg xmlns="http://www.w3.org/2000/svg"><defs>
        <style>
            .cls-1{fill:#fff;fill-rule:evenodd}
        </style>
    
        <style>
            .cls-1{fill:#3a4776;fill-rule:evenodd}
        </style>
    
        <style>
            .cls-1{fill:#fff;fill-rule:evenodd}
        </style>
    </defs><symbol id="icon-behance" viewBox="0 0 412.2 258.3">
    <path d="M119.5 0c12.1 0 23.1 1 33.1 3.2 9.9 2.1 18.4 5.6 25.6 10.5 7.1 4.8 12.6 11.3 16.5 19.3s5.8 18 5.8 29.8c0 12.8-2.9 23.4-8.7 32-5.8 8.5-14.4 15.5-25.9 20.9 15.6 4.5 27.2 12.4 34.8 23.6 7.7 11.3 11.5 24.8 11.5 40.7 0 12.9-2.5 23.9-7.4 33.2-5 9.4-11.7 17.1-20.1 23s-18 10.3-28.8 13.2c-10.7 2.8-21.8 4.3-33.1 4.3H0V0h119.5zm-7.2 102.4c9.9 0 18.1-2.3 24.6-7.1 6.4-4.7 9.5-12.4 9.5-23.1 0-5.9-1-10.8-3.1-14.6-2.2-3.8-5-6.7-8.6-8.8-3.6-2.2-7.6-3.6-12.3-4.5-4.6-.9-9.4-1.3-14.4-1.3H55.8v59.3h56.5v.1zm3.1 108c5.5 0 10.7-.5 15.7-1.6s9.4-2.8 13.2-5.4c3.7-2.5 6.8-5.8 9.1-10.1s3.3-9.8 3.3-16.4c0-13.1-3.7-22.3-11-28-7.3-5.6-17.1-8.3-29.1-8.3H55.9v69.8h59.5z"/>
    <path d="M291.9 209.5c7.6 7.4 18.5 11.1 32.6 11.1 10.2 0 19-2.6 26.3-7.7s11.8-10.6 13.5-16.3h44.4c-7.1 22.1-18 37.9-32.7 47.4-14.6 9.5-32.4 14.3-53.2 14.3-14.5 0-27.5-2.3-39.2-7s-21.4-11.2-29.6-19.7c-8-8.6-14.2-18.7-18.6-30.6-4.4-11.8-6.6-24.9-6.6-39.1 0-13.7 2.3-26.6 6.8-38.4 4.6-11.9 10.9-22.2 19.2-30.8 8.3-8.7 18.2-15.5 29.8-20.5 11.5-5 24.2-7.5 38.3-7.5 15.5 0 29.1 3 40.8 9.1 11.6 6 21.1 14.1 28.6 24.3 7.5 10.2 12.8 21.8 16.1 34.8 3.3 13 4.5 26.6 3.5 40.9H279.4c0 14.6 4.9 28.4 12.5 35.7zm57.9-96.4c-6-6.6-16.1-10.2-28.5-10.2-8.1 0-14.7 1.4-20.1 4.1-5.2 2.7-9.5 6.1-12.8 10.1-3.3 4.1-5.5 8.4-6.8 12.9s-2.1 8.5-2.3 12.1h82.1c-1.1-12.8-5.5-22.3-11.6-29z"/>
    <path d="M269.1 17h102.8v25H269.1z"/>
</symbol><symbol id="icon-check" viewBox="0 0 33 23">
    <style>
        .st0{fill:#fff}
    </style>
    <path class="st0" d="M12 23c-.5 0-1-.2-1.4-.6l-10-10c-.8-.8-.8-2 0-2.8.8-.8 2-.8 2.8 0l8.6 8.6L29.6.6c.8-.8 2-.8 2.8 0 .8.8.8 2 0 2.8l-19 19c-.4.4-.9.6-1.4.6z"/>
</symbol><symbol id="icon-close" viewBox="0 0 34.3 34">
    <style>
        .st0{fill:#bddcff}
    </style>
    <path class="st0" d="M32.3 34c-.5 0-1-.2-1.4-.6L.6 3.4c-.8-.8-.8-2 0-2.8.8-.8 2-.8 2.8 0l30.4 30c.8.8.8 2 0 2.8-.4.4-.9.6-1.5.6z"/>
    <path class="st0" d="M2.4 33.5c-.5 0-1-.2-1.4-.6-.8-.8-.8-2.1 0-2.8L30.7.6c.8-.8 2.1-.8 2.8 0 .8.8.8 2.1 0 2.8L3.8 32.9c-.4.4-.9.6-1.4.6z"/>
</symbol><symbol id="icon-creativemarket" viewBox="0 0 100 99.843">
    
    <path id="ic_creativemarket" class="cls-1" d="M436.592 468.277c0-3.821-1.645-26.537-1.645-26.537a10.3 10.3 0 0 0-10.664-10.669s-22.718-1.645-26.544-1.645c-5.49 0-9.153-.159-16.032 6.727-3.346 3.339-40.427 40.423-41.993 41.983s-6.837 7.714 2.163 16.714l14.241 14.24.8.805 14.242 14.246c9.007 9.006 15.161 3.717 16.721 2.157l41.986-41.983c6.89-6.886 6.725-10.542 6.725-16.038zm-39.631 12.251l12.7 6.034-4.673 8.362-11.751-7.675a1.627 1.627 0 0 0-.892-.272 1.578 1.578 0 0 0-1.579 1.7l.973 13.9h-9.451c.037-.118.773-13.906.773-13.906a1.582 1.582 0 0 0-2.469-1.423L369.173 495l-5.1-8.112 12.817-6.363a1.582 1.582 0 0 0 0-2.859l-12.712-6.034 4.673-8.36 11.746 7.68a1.583 1.583 0 0 0 2.469-1.424l-.965-13.9h9.413l-.743 13.9a1.584 1.584 0 0 0 2.471 1.424l11.424-7.761 5.1 8.114-12.805 6.361a1.582 1.582 0 0 0 0 2.862zm21.733-26.656a6.011 6.011 0 1 1 6-6.014 6.011 6.011 0 0 1-6 6.014z" transform="translate(-336.75 -429.438)"/>
</symbol><symbol id="icon-dribbble" viewBox="0 0 18 18">
    <title/>
    <path d="M9 0C4 0 0 4 0 9s4 9 9 9 9-4 9-9-4-9-9-9zm7.5 8.9c-1.1-.3-2.2-.4-3.4-.4-.6 0-1.1 0-1.7.1h-.1c-.2-.5-.4-.9-.6-1.3 1.6-.7 3-1.7 4.1-3 1.1 1.3 1.7 2.9 1.7 4.6zm-2.8-5.7c-1 1.2-2.3 2.1-3.7 2.7C9.2 4.4 8.3 3 7.3 1.7c2.2-.5 4.6 0 6.4 1.5zm-8-.9c1.1 1.3 2 2.7 2.8 4.2-2.1.5-4.3.8-6.5.8h-.3c.5-2.2 2-4.1 4-5zM1.5 9v-.3H2c2.5 0 4.9-.3 7.3-1 .2.4.4.8.5 1.2-2.7.9-4.9 2.6-6.5 5-1.1-1.3-1.8-3.1-1.8-4.9zm3 6c1.3-2.2 3.4-3.8 5.9-4.6.7 1.8 1.1 3.7 1.4 5.6-2.5.9-5.3.6-7.3-1zm8.7.2c-.3-1.8-.7-3.5-1.3-5.2.4-.1.9-.1 1.3-.1 1.1 0 2.1.2 3.2.4-.4 2.1-1.6 3.8-3.2 4.9z"/>
</symbol><symbol id="icon-fb" viewBox="0 0 134.5 258.9">
    <path d="M87.3 258.9V140.8H127l5.9-46H87.3V65.4C87.3 52.1 91 43 110.1 43h24.4V1.8C130.3 1.2 115.8 0 99 0 63.8 0 39.8 21.5 39.8 60.9v34H0v46h39.8v118h47.5z"/>
</symbol><symbol id="icon-in" viewBox="0 0 259.4 259">
    <path d="M4.2 86H58v173H4.2V86zm27-86c17.2 0 31.2 14 31.2 31.2s-14 31.2-31.2 31.2C13.9 62.4 0 48.4 0 31.2S13.9 0 31.2 0"/>
    <path d="M91.8 86h51.5v23.7h.7c7.2-13.6 24.7-27.9 50.9-27.9 54.4 0 64.5 35.8 64.5 82.4V259h-53.7v-84.1c0-20.1-.3-45.9-27.9-45.9-28 0-32.2 21.9-32.2 44.4V259H91.9l-.1-173z"/>
</symbol><symbol id="icon-instagram" viewBox="0 0 258.8 258.8">
    <path d="M252 44.6c-3.3-8.5-7.7-15.7-14.9-22.9-7.2-7.2-14.4-11.6-22.9-14.9-8.2-3.2-17.7-5.4-31.4-6C169 .2 164.6 0 129.4 0S89.8.1 76 .8c-13.8.6-23.2 2.8-31.4 6-8.5 3.3-15.7 7.7-22.9 14.9S10.1 36.1 6.8 44.6C3.6 52.8 1.4 62.3.8 76 .2 89.8 0 94.2 0 129.4s.1 39.6.8 53.4c.6 13.8 2.8 23.2 6 31.4 3.3 8.5 7.7 15.7 14.9 22.9 7.2 7.2 14.4 11.6 22.9 14.9 8.2 3.2 17.7 5.4 31.4 6 13.8.6 18.2.8 53.4.8s39.6-.1 53.4-.8c13.8-.6 23.2-2.8 31.4-6 8.5-3.3 15.7-7.7 22.9-14.9 7.2-7.2 11.6-14.4 14.9-22.9 3.2-8.2 5.4-17.7 6-31.4.6-13.8.8-18.2.8-53.4s-.1-39.6-.8-53.4c-.6-13.8-2.8-23.2-6-31.4zm-17.3 137.1c-.6 12.6-2.7 19.5-4.5 24-2.3 6-5.2 10.4-9.7 14.9s-8.8 7.3-14.9 9.7c-4.6 1.8-11.4 3.9-24 4.5-13.7.6-17.7.8-52.3.8s-38.7-.1-52.3-.8c-12.6-.6-19.5-2.7-24-4.5-6-2.3-10.4-5.2-14.9-9.7s-7.3-8.8-9.7-14.9c-1.8-4.6-3.9-11.4-4.5-24-.6-13.7-.8-17.8-.8-52.3s.1-38.7.8-52.3c.6-12.6 2.7-19.5 4.5-24 2.3-6 5.2-10.4 9.7-14.9s8.8-7.3 14.9-9.7c4.6-1.8 11.4-3.9 24-4.5 13.7-.6 17.8-.8 52.3-.8s38.7.1 52.3.8c12.6.6 19.5 2.7 24 4.5 6 2.3 10.4 5.2 14.9 9.7s7.3 8.8 9.7 14.9c1.8 4.6 3.9 11.4 4.5 24 .6 13.7.8 17.8.8 52.3s-.2 38.7-.8 52.3z"/>
    <path d="M129.3 62.9c-36.7 0-66.5 29.8-66.5 66.5s29.8 66.5 66.5 66.5 66.5-29.8 66.5-66.5-29.8-66.5-66.5-66.5zm0 109.7c-23.8 0-43.2-19.3-43.2-43.2 0-23.8 19.3-43.2 43.2-43.2s43.2 19.3 43.2 43.2c0 23.8-19.4 43.2-43.2 43.2z"/>
    <circle cx="198.4" cy="60.3" r="15.5"/>
</symbol><symbol id="icon-left" viewBox="0 0 17 29">
    <path d="M16.707 1.707L15.293.293.559 15.027l14.76 13.706 1.361-1.466L3.44 14.973z" fill-rule="evenodd"/>
</symbol><symbol id="icon-logo" viewBox="0 0 73.875 99.969">
    
    <path id="logo" class="cls-1" d="M548.84 215.379a36.581 36.581 0 0 1-33.935 36.232 2.825 2.825 0 0 1-3-3.11v-3.3a2.707 2.707 0 0 1 2.378-2.629 27.239 27.239 0 0 0 3.191-53.932c-17.748-3.367-33.283 9.908-33.283 26.742V267.8a1.865 1.865 0 0 0 2.28 1.828 9.1 9.1 0 0 0 6.969-8.786v-45.463a17.966 17.966 0 0 1 5.406-12.858 18.822 18.822 0 0 1 26.119 0 13.84 13.84 0 0 1 0 19.3 11.281 11.281 0 0 1-4.983 2.886 2.815 2.815 0 0 1-.684.128 1.716 1.716 0 0 1-1.693-1.7 1.648 1.648 0 0 1 .293-.93 9.472 9.472 0 0 0 3.224-6.926 8.856 8.856 0 0 0-9.217-8.978 9.166 9.166 0 0 0-9.248 9.075v45.434a18.33 18.33 0 0 1-18.466 18.18h-4.559a4.615 4.615 0 0 1-4.657-4.553v-58.032c0-17.988 12.831-34.052 30.841-36.906 23.093-3.655 43.024 13.852 43.024 35.88z" transform="translate(-474.969 -179.031)"/>
</symbol><symbol id="icon-pinterest" viewBox="0 0 38.5 49.8">
    <path d="M20.4 0C6.9 0 0 9.7 0 17.9c0 4.9 1.9 9.3 5.9 10.9.7.3 1.2 0 1.4-.7.1-.5.4-1.8.6-2.3.2-.7.1-1-.4-1.6-1.2-1.4-1.9-3.1-1.9-5.6 0-7.2 5.4-13.7 14.1-13.7 7.7 0 11.9 4.7 11.9 11 0 8.2-3.6 15.2-9.1 15.2-3 0-5.2-2.5-4.5-5.5.9-3.6 2.5-7.5 2.5-10.1 0-2.3-1.3-4.3-3.9-4.3-3.1 0-5.5 3.2-5.5 7.4 0 2.7.9 4.5.9 4.5S8.9 36.3 8.4 38.6c-1.1 4.6-.2 10.3-.1 10.9 0 .3.5.4.7.2.3-.4 3.9-4.9 5.2-9.4.4-1.3 2-7.9 2-7.9 1 1.9 3.9 3.6 7 3.6 9.2 0 15.4-8.4 15.4-19.6C38.5 7.9 31.4 0 20.4 0z"/>
</symbol><symbol id="icon-right" viewBox="0 0 17 29">
    <path d="M.32 27.267l1.36 1.466 14.76-13.706L1.708.293.293 1.707l13.266 13.266z" fill-rule="evenodd"/>
</symbol><symbol id="icon-share" viewBox="0 0 17 18">
    <title/>
    <path d="M13.5 11c-1 0-2 .5-2.7 1.2l-4-2.4c.2-.6.2-1.2 0-1.7l4-2.4c1.3 1.5 3.5 1.6 4.9.4s1.6-3.5.4-4.9-3.5-1.6-4.9-.4c-.7.7-1.2 1.7-1.2 2.7v.4L5.9 6.4c-1.5-1.3-3.7-1.2-5 .2s-1.2 3.6.2 4.9c1.3 1.2 3.4 1.2 4.7 0L10 14v.4c0 1.9 1.6 3.5 3.5 3.5s3.5-1.6 3.5-3.5-1.5-3.4-3.5-3.4z"/>
</symbol><symbol id="icon-shutterstock" viewBox="0 0 81.562 100">
    
    <path id="ic_shutterstock" class="cls-1" d="M645.615 451.247h-21.839a6.335 6.335 0 0 0-6.291 6.362v24.009h-21.543v-24.009a28 28 0 0 1 27.834-28.184h21.839v21.822m-17.776 56.358h21.853a6.336 6.336 0 0 0 6.284-6.37v-24h21.54v24a28.012 28.012 0 0 1-27.824 28.2h-21.853v-21.83" transform="translate(-595.938 -429.438)"/>
</symbol><symbol id="icon-tumblr" viewBox="0 0 10 18">
    <title/>
    <path d="M9.1 14.6c-.5.2-1 .3-1.5.3-.9 0-1.6-.7-1.6-1.6V7.5h3.5V5H6V0H3.5C3.7 2.3 2.2 4.4 0 5v2.5h2V13c.1 2.9 2.5 5.1 5.4 5 .9 0 1.9-.3 2.7-.9l-1-2.5z"/>
</symbol><symbol id="icon-tw" viewBox="0 0 318.7 259.1">
    <path d="M100.2 259.1c120.3 0 186.1-99.7 186.1-186.1 0-2.8 0-5.6-.2-8.5 12.8-9.3 23.8-20.7 32.6-33.9-11.9 5.3-24.6 8.8-37.6 10.3 13.7-8.2 23.9-21 28.8-36.2-12.8 7.6-26.9 13-41.5 15.9-24.8-26.3-66.2-27.6-92.5-2.8-17 16-24.2 39.8-18.9 62.5C104.4 77.7 55.4 52.8 22.2 12 4.8 41.9 13.7 80.1 42.4 99.3 32 99 21.8 96.2 12.7 91.1v.8c0 31.1 22 57.9 52.5 64.1-9.6 2.6-19.7 3-29.5 1.1 8.6 26.6 33.1 44.9 61.1 45.4-23.2 18.2-51.8 28.1-81.2 28.1-5.2 0-10.4-.3-15.6-.9 29.8 19.2 64.6 29.4 100.2 29.4"/>
</symbol><symbol id="icon-vk" viewBox="0 0 20.3 11.5">
    <title/>
    <path d="M19.5.5h-3.3c-.3 0-.5.2-.7.4 0 0-1.3 2.4-1.7 3.2-1.1 2.2-1.9 1.5-1.9.5V1.1c0-.6-.5-1.1-1.1-1.1H8.4C7.7 0 7 .3 6.6.8c0 0 1.3-.2 1.3 1.5v2.6c0 .4-.3.7-.7.7-.2.1-.4 0-.6-.1-1-1.5-1.8-3-2.5-4.6C4 .7 3.8.5 3.5.5h-3C.2.5 0 .7 0 1v.2c.9 2.5 4.8 10.3 9.3 10.3h1.9c.4 0 .7-.3.7-.7V9.6c0-.4.3-.7.7-.7.2 0 .4.1.5.2l2.2 2.1c.2.2.5.3.7.3h3c1.4 0 1.4-1 .6-1.8-.5-.5-2.5-2.6-2.5-2.6-.3-.4-.4-.9-.1-1.3.8-.8 1.8-2.2 2.3-2.8.6-.8 1.7-2.5.2-2.5z"/>
</symbol></svg>