<svg xmlns="http://www.w3.org/2000/svg" viewBox="0 0 164 111.11"><defs><style>.cls-1{fill:#7fb5ea;}.cls-2{fill:#fff;}.cls-3{fill:#4099ff;}.cls-4{fill:#07386e;}.cls-5{fill:#bddcff;}</style></defs><title>ic_ui-mobile</title><g id="Layer_2" data-name="Layer 2"><g id="Layer_1-2" data-name="Layer 1"><rect class="cls-1" x="48.99" y="2" width="66.02" height="107.11" rx="7.24" ry="7.24"/><path class="cls-2" d="M107.77,111.11H56.23A9.25,9.25,0,0,1,47,101.87V9.24A9.25,9.25,0,0,1,56.23,0h51.54A9.25,9.25,0,0,1,117,9.24v92.62A9.25,9.25,0,0,1,107.77,111.11ZM56.23,4A5.25,5.25,0,0,0,51,9.24v92.62a5.25,5.25,0,0,0,5.24,5.24h51.54a5.25,5.25,0,0,0,5.24-5.24V9.24A5.25,5.25,0,0,0,107.77,4Z"/><rect class="cls-2" x="48.99" y="16.39" width="66.02" height="4"/><rect class="cls-2" x="48.99" y="81.67" width="66.02" height="4"/><rect class="cls-2" x="70.36" y="8.55" width="23.27" height="4"/><rect class="cls-1" x="76.45" y="90.4" width="11.97" height="11.97" rx="5.99" ry="5.99"/><path class="cls-2" d="M82.44,104.38a8,8,0,1,1,8-8A8,8,0,0,1,82.44,104.38Zm0-12a4,4,0,1,0,4,4A4,4,0,0,0,82.44,92.4Z"/><rect class="cls-3" x="48.99" y="18.39" width="66.02" height="64.91"/><path class="cls-2" d="M117,85.29H47V16.39h70Zm-66-4h62V20.39H51Z"/><rect class="cls-4" x="65.89" y="27.25" width="32.22" height="32.22"/><path class="cls-2" d="M100.11,61.47H63.89V25.25h36.22Zm-32.22-4H96.11V29.25H67.89Z"/><line class="cls-5" x1="65.89" y1="67.55" x2="98.11" y2="67.55"/><rect class="cls-2" x="65.89" y="65.55" width="32.22" height="4"/><line class="cls-5" x1="65.89" y1="76.19" x2="98.11" y2="76.19"/><rect class="cls-2" x="65.89" y="74.19" width="32.22" height="4"/><rect class="cls-5" x="2" y="18.39" width="46.99" height="65.28"/><path class="cls-2" d="M51,85.67H0V16.39H51Zm-47-4H47V20.39H4Z"/><rect class="cls-1" x="14.14" y="31.8" width="22.71" height="22.71"/><path class="cls-2" d="M38.85,56.5H12.14V29.79H38.85Zm-22.71-4H34.85V33.79H16.14Z"/><line class="cls-5" x1="14.14" y1="62.98" x2="36.85" y2="62.98"/><rect class="cls-2" x="14.14" y="60.98" width="22.71" height="4"/><line class="cls-5" x1="14.14" y1="70.58" x2="36.85" y2="70.58"/><rect class="cls-2" x="14.14" y="68.58" width="22.71" height="4"/><rect class="cls-5" x="115.01" y="18.39" width="46.99" height="65.28"/><path class="cls-2" d="M164,85.67H113V16.39h51Zm-47-4h43V20.39H117Z"/><rect class="cls-1" x="127.15" y="31.8" width="22.71" height="22.71"/><path class="cls-2" d="M151.86,56.5H125.15V29.79h26.71Zm-22.71-4h18.71V33.79H129.15Z"/><line class="cls-5" x1="127.15" y1="62.98" x2="149.86" y2="62.98"/><rect class="cls-2" x="127.15" y="60.98" width="22.71" height="4"/><line class="cls-5" x1="127.15" y1="70.58" x2="149.86" y2="70.58"/><rect class="cls-2" x="127.15" y="68.58" width="22.71" height="4"/></g></g></svg>