<svg xmlns="http://www.w3.org/2000/svg" viewBox="0 0 134 112.33"><defs><style>.cls-1{fill:#fff;}.cls-2{fill:#3984de;}.cls-3{fill:#07386e;}.cls-4{fill:#7fb5ea;}.cls-5{fill:#145a99;}</style></defs><title>ic_illustrations</title><g id="Layer_2" data-name="Layer 2"><g id="Layer_1-2" data-name="Layer 1"><path class="cls-1" d="M119.21,102.67H76.67a2,2,0,1,1,0-4h42.54a2,2,0,1,1,0,4Z"/><line class="cls-2" x1="57.33" y1="100.67" x2="14.79" y2="100.67"/><path class="cls-1" d="M57.33,102.67H14.79a2,2,0,1,1,0-4H57.33a2,2,0,1,1,0,4Z"/><path class="cls-1" d="M76.67,112.33H57.33a2,2,0,0,1-2-2V91a2,2,0,0,1,2-2H76.67a2,2,0,0,1,2,2v19.34A2,2,0,0,1,76.67,112.33Zm-17.34-4H74.67V93H59.33Z"/><rect class="cls-3" x="45.83" y="22.67" width="42.34" height="9.67" rx="4.83" ry="4.83"/><path class="cls-1" d="M83.34,34.34H50.66a6.83,6.83,0,0,1,0-13.67H83.34a6.83,6.83,0,0,1,0,13.67ZM50.66,24.67a2.83,2.83,0,0,0,0,5.67H83.34a2.83,2.83,0,0,0,0-5.67Z"/><path class="cls-4" d="M67,2h8.22a5,5,0,0,1,5,5V22.67H67Z"/><path class="cls-1" d="M82.24,24.67H65V0H75.22a7,7,0,0,1,7,7ZM69,20.67h9.24V7a3,3,0,0,0-3-3H69Z"/><path class="cls-5" d="M58.78,2H67V22.67H53.76V7A5,5,0,0,1,58.78,2Z"/><path class="cls-1" d="M69,24.67H51.76V7a7,7,0,0,1,7-7H69Zm-13.24-4H65V4H58.78a3,3,0,0,0-3,3Z"/><path class="cls-1" d="M125.6,109.06a8.4,8.4,0,1,1,8.4-8.4A8.41,8.41,0,0,1,125.6,109.06Zm0-12.79a4.4,4.4,0,1,0,4.4,4.4A4.4,4.4,0,0,0,125.6,96.27Z"/><path class="cls-1" d="M114.56,58.34a8.4,8.4,0,1,1,8.4-8.4A8.41,8.41,0,0,1,114.56,58.34Zm0-12.79a4.4,4.4,0,1,0,4.4,4.4A4.4,4.4,0,0,0,114.56,45.55Z"/><path class="cls-1" d="M8.4,109.06a8.4,8.4,0,1,1,8.4-8.4A8.41,8.41,0,0,1,8.4,109.06Zm0-12.79a4.4,4.4,0,1,0,4.4,4.4A4.4,4.4,0,0,0,8.4,96.27Z"/><path class="cls-4" d="M67,81.13,86,53a3.06,3.06,0,0,0-1.12-4.42c-2.75-1.44-6.22-4.48-6.22-10.71V32.34H55.35V37.9c0,6.23-3.47,9.27-6.22,10.71A3.06,3.06,0,0,0,48,53Z"/><path class="cls-1" d="M67,84.7,46.35,54.15a5.06,5.06,0,0,1,1.85-7.32C51.62,45,53.35,42,53.35,37.9V30.34h27.3V37.9c0,4.15,1.73,7.15,5.14,8.93a5.06,5.06,0,0,1,1.85,7.32ZM57.35,34.34V37.9c0,5.59-2.59,10-7.29,12.48a1.06,1.06,0,0,0-.39,1.53L67,77.56,84.33,51.91a1.06,1.06,0,0,0-.39-1.53c-4.7-2.46-7.29-6.89-7.29-12.48V34.34Z"/><line class="cls-2" x1="67" y1="81.13" x2="67" y2="54.65"/><path class="cls-1" d="M67,83.13a2,2,0,0,1-2-2V54.65a2,2,0,0,1,4,0V81.13A2,2,0,0,1,67,83.13Z"/><path class="cls-1" d="M67,56.65a7.35,7.35,0,1,1,7.35-7.35A7.36,7.36,0,0,1,67,56.65Zm0-10.71a3.35,3.35,0,1,0,3.35,3.35A3.36,3.36,0,0,0,67,45.94Z"/><path class="cls-1" d="M76.67,102.67a2,2,0,1,1,0-4c12.52,0,35.88-14.54,35.88-42.33a2,2,0,0,1,4,0C116.55,87.19,91,102.67,76.67,102.67Z"/><path class="cls-1" d="M19.44,58.34a8.4,8.4,0,1,1,8.4-8.4A8.41,8.41,0,0,1,19.44,58.34Zm0-12.79a4.4,4.4,0,1,0,4.4,4.4A4.4,4.4,0,0,0,19.44,45.55Z"/><path class="cls-1" d="M57.33,102.67c-14.31,0-39.88-15.48-39.88-46.33a2,2,0,0,1,4,0c0,27.79,23.36,42.33,35.88,42.33a2,2,0,1,1,0,4Z"/></g></g></svg>