<svg xmlns="http://www.w3.org/2000/svg" viewBox="0 0 133.96 130.96"><defs><style>.cls-1{fill:#4099ff;}.cls-2{fill:#fff;}.cls-3{fill:#145a99;}.cls-4{fill:#7fb5ea;}.cls-5{fill:#75a1cc;}.cls-6{fill:#bddcff;}.cls-7{fill:#07386e;}</style></defs><title>ic_logo</title><g id="Layer_2" data-name="Layer 2"><g id="Layer_1-2" data-name="Layer 1"><circle class="cls-1" cx="66.74" cy="42.25" r="40.25"/><path class="cls-2" d="M66.74,84.49A42.25,42.25,0,1,1,109,42.25,42.29,42.29,0,0,1,66.74,84.49ZM66.74,4A38.25,38.25,0,1,0,105,42.25,38.29,38.29,0,0,0,66.74,4Z"/><path class="cls-3" d="M66.5,56.57A40.24,40.24,0,0,0,52.32,79.83,40.31,40.31,0,0,1,27.51,51.24,40.33,40.33,0,0,1,66.5,56.57Z"/><path class="cls-2" d="M53.8,82.55l-2.2-.84a42.15,42.15,0,0,1-26-30L25.18,50l1.6-.63A42.47,42.47,0,0,1,67.71,55l2,1.55-2,1.61A38.22,38.22,0,0,0,54.28,80.24Zm-23.92-30a38.14,38.14,0,0,0,21,24.58c.3-1.14.65-2.26,1-3.34a42.13,42.13,0,0,1,11.3-17A38.51,38.51,0,0,0,29.89,52.5Z"/><path class="cls-4" d="M106.16,50.35A40.25,40.25,0,0,1,81.49,79.7a40.32,40.32,0,0,0-15-23.13A40.19,40.19,0,0,1,105.25,50C105.56,50.1,105.86,50.21,106.16,50.35Z"/><path class="cls-2" d="M80.06,82.41l-.52-2.27a38.33,38.33,0,0,0-14.25-22l-2-1.54,2-1.61a42,42,0,0,1,40.68-6.9c.35.13.7.25,1,.4l1.48.65-.32,1.58a42,42,0,0,1-25.9,30.82ZM69.75,56.62A42.4,42.4,0,0,1,82.85,76.95a38,38,0,0,0,21-25.33A38,38,0,0,0,69.75,56.62Z"/><path class="cls-5" d="M67.51,120A40.26,40.26,0,0,1,52.32,79.83a40.33,40.33,0,0,0,29.17-.13A40.24,40.24,0,0,1,67.51,120Z"/><path class="cls-2" d="M67.55,122.57l-1.24-.94A42.35,42.35,0,0,1,50.36,79.43l.48-2.31L53,78a38.33,38.33,0,0,0,27.72-.13L82.92,77l.52,2.27A42.45,42.45,0,0,1,68.76,121.6ZM53.88,82.5a38.37,38.37,0,0,0,13.58,35A38.47,38.47,0,0,0,80,82.38,42.56,42.56,0,0,1,53.88,82.5Z"/><path class="cls-2" d="M81.49,79.7a40.33,40.33,0,0,1-29.17.13A40.24,40.24,0,0,1,66.5,56.57a40.32,40.32,0,0,1,15,23.13Z"/><path class="cls-2" d="M66.74,84.5A42.08,42.08,0,0,1,51.6,81.7L50,81.09l.34-1.66A42.24,42.24,0,0,1,65.25,55l1.21-1,1.24.94A42.32,42.32,0,0,1,83.44,79.26l.38,1.67-1.6.63A42,42,0,0,1,66.74,84.5ZM54.67,78.55a38.53,38.53,0,0,0,24.45-.1,38.38,38.38,0,0,0-12.57-19.3A38.15,38.15,0,0,0,55.72,75.08C55.32,76.2,55,77.36,54.67,78.55Z"/><path class="cls-6" d="M129.66,101.41A40.26,40.26,0,0,1,67.51,120a40.24,40.24,0,0,0,14-40.34,40.23,40.23,0,0,0,24.67-29.36A40.23,40.23,0,0,1,129.66,101.41Z"/><path class="cls-2" d="M91.78,130.18a42.53,42.53,0,0,1-25.48-8.54l-2-1.55,2-1.61A38.43,38.43,0,0,0,79.54,80.15l-.39-1.68,1.6-.63a38,38,0,0,0,23.44-27.9l.47-2.31,2.21.84a42.47,42.47,0,0,1,24.67,53.61,42.31,42.31,0,0,1-39.76,28.1Zm-21-10.29a38.25,38.25,0,0,0,57-19.15h0A38.48,38.48,0,0,0,107.57,53.1,42,42,0,0,1,83.78,80.91,42.51,42.51,0,0,1,70.76,119.89Z"/><path class="cls-7" d="M67.5,120c-.8.66-1.64,1.28-2.5,1.87A40.25,40.25,0,1,1,27.51,51.24,40.3,40.3,0,0,0,52.32,79.83,40.27,40.27,0,0,0,67.5,120Z"/><path class="cls-2" d="M42.35,131a42.67,42.67,0,0,1-7.85-.73A42.25,42.25,0,0,1,18.38,53.84a42.42,42.42,0,0,1,8.4-4.46l2.17-.86.52,2.27A38.15,38.15,0,0,0,53,78l1.58.61-.34,1.66a38.36,38.36,0,0,0,14.42,38.2l2,1.53-2,1.61c-.79.66-1.66,1.3-2.64,2A41.93,41.93,0,0,1,42.35,131ZM26.16,54a38.25,38.25,0,1,0,37.71,66.25l.38-.27a42.42,42.42,0,0,1-14.2-38.92A42.13,42.13,0,0,1,26.16,54Z"/></g></g></svg>