<svg xmlns="http://www.w3.org/2000/svg" viewBox="0 0 144 100.66"><defs><style>.cls-1{fill:#bddcff;}.cls-2{fill:#fff;}.cls-3{fill:#7fb5ea;}.cls-4{fill:#4099ff;}.cls-5{fill:#07386e;}</style></defs><title>ic_ui-web</title><g id="Layer_2" data-name="Layer 2"><g id="Layer_1-2" data-name="Layer 1"><path class="cls-1" d="M2,24.37H142a0,0,0,0,1,0,0v68a6.33,6.33,0,0,1-6.33,6.33H8.33A6.33,6.33,0,0,1,2,92.33v-68A0,0,0,0,1,2,24.37Z"/><path class="cls-2" d="M135.67,100.66H8.33A8.34,8.34,0,0,1,0,92.33v-70H144v70A8.34,8.34,0,0,1,135.67,100.66ZM4,26.37v66a4.33,4.33,0,0,0,4.33,4.33H135.67A4.33,4.33,0,0,0,140,92.33v-66Z"/><path class="cls-3" d="M142,24.26H2V8.31A6.31,6.31,0,0,1,8.31,2H135.69A6.31,6.31,0,0,1,142,8.31Z"/><path class="cls-2" d="M144,26.26H0V8.31A8.32,8.32,0,0,1,8.31,0H135.69A8.32,8.32,0,0,1,144,8.31Zm-140-4H140V8.31A4.32,4.32,0,0,0,135.69,4H8.31A4.32,4.32,0,0,0,4,8.31Z"/><rect class="cls-3" x="9.27" y="7.89" width="10.48" height="10.48" rx="5.24" ry="5.24"/><path class="cls-2" d="M14.51,20.37a7.24,7.24,0,1,1,7.24-7.24A7.25,7.25,0,0,1,14.51,20.37Zm0-10.48a3.24,3.24,0,1,0,3.24,3.24A3.24,3.24,0,0,0,14.51,9.89Z"/><rect class="cls-3" x="26.23" y="7.89" width="10.48" height="10.48" rx="5.24" ry="5.24"/><path class="cls-2" d="M31.47,20.37a7.24,7.24,0,1,1,7.24-7.24A7.25,7.25,0,0,1,31.47,20.37Zm0-10.48a3.24,3.24,0,1,0,3.24,3.24A3.24,3.24,0,0,0,31.47,9.89Z"/><rect class="cls-3" x="43.19" y="7.89" width="10.48" height="10.48" rx="5.24" ry="5.24"/><path class="cls-2" d="M48.43,20.37a7.24,7.24,0,1,1,7.24-7.24A7.25,7.25,0,0,1,48.43,20.37Zm0-10.48a3.24,3.24,0,1,0,3.24,3.24A3.24,3.24,0,0,0,48.43,9.89Z"/><line class="cls-1" x1="9.73" y1="91.53" x2="44.66" y2="91.53"/><rect class="cls-2" x="7.73" y="89.53" width="38.93" height="4"/><rect class="cls-3" x="9.73" y="73.19" width="34.93" height="10.9"/><path class="cls-2" d="M46.66,86.09H7.73V71.19H46.66Zm-34.93-4H42.66v-6.9H11.73Z"/><line class="cls-1" x1="54.53" y1="91.53" x2="89.47" y2="91.53"/><rect class="cls-2" x="52.53" y="89.53" width="38.93" height="4"/><rect class="cls-3" x="54.53" y="73.19" width="34.93" height="10.9"/><path class="cls-2" d="M91.47,86.09H52.53V71.19H91.47Zm-34.93-4H87.47v-6.9H56.53Z"/><line class="cls-1" x1="99.63" y1="91.53" x2="134.56" y2="91.53"/><rect class="cls-2" x="97.63" y="89.53" width="38.93" height="4"/><rect class="cls-3" x="99.63" y="73.19" width="34.93" height="10.9"/><path class="cls-2" d="M136.56,86.09H97.63V71.19h38.93Zm-34.93-4h30.93v-6.9H101.63Z"/><rect class="cls-4" x="2" y="24.37" width="140" height="41.24"/><path class="cls-2" d="M144,67.61H0V22.37H144Zm-140-4H140V26.37H4Z"/><line class="cls-4" x1="34.94" y1="51.19" x2="109.06" y2="51.19"/><rect class="cls-2" x="34.94" y="49.19" width="74.12" height="4"/><line class="cls-4" x1="53.9" y1="58.63" x2="90.1" y2="58.63"/><rect class="cls-2" x="53.9" y="56.63" width="36.21" height="4"/><polyline class="cls-4" points="16.88 38.79 10.68 44.99 16.88 51.19"/><polygon class="cls-2" points="15.47 52.6 7.85 44.99 15.47 37.37 18.3 40.2 13.51 44.99 18.3 49.77 15.47 52.6"/><polyline class="cls-4" points="128.36 51.19 134.56 44.99 128.36 38.79"/><polygon class="cls-2" points="129.77 52.6 126.94 49.77 131.73 44.99 126.94 40.2 129.77 37.37 137.39 44.99 129.77 52.6"/><rect class="cls-5" x="44.37" y="31.79" width="55.26" height="10.9"/><path class="cls-2" d="M101.63,44.68H42.37V29.79h59.26Zm-55.26-4H97.63v-6.9H46.37Z"/></g></g></svg>